<?xml version="1.0" standalone="no"?>
<!DOCTYPE svg PUBLIC "-//W3C//DTD SVG 20010904//EN"
 "http://www.w3.org/TR/2001/REC-SVG-20010904/DTD/svg10.dtd">
<svg version="1.0" xmlns="http://www.w3.org/2000/svg"
 width="2084.000000pt" height="2084.000000pt" viewBox="0 0 2084.000000 2084.000000"
 preserveAspectRatio="xMidYMid meet">

<g transform="translate(0.000000,2084.000000) scale(0.100000,-0.100000)"
fill="#000000" stroke="none">
<path d="M10665 15731 c-546 -115 -934 -588 -935 -1143 -1 -361 173 -712 459
-929 l64 -49 -34 -12 c-76 -26 -271 -130 -369 -196 -321 -216 -565 -525 -705
-892 -64 -168 -114 -423 -115 -582 l0 -68 155 0 155 0 0 73 c0 179 64 424 163
622 354 711 1209 1046 1944 762 224 -87 371 -184 549 -361 275 -275 419 -582
456 -968 l12 -128 153 0 153 0 -6 88 c-13 204 -55 408 -118 570 -179 465 -536
842 -984 1043 -57 25 -103 49 -103 53 0 3 34 34 75 67 213 171 360 419 412
696 25 133 16 374 -20 508 -105 400 -432 726 -833 832 -136 35 -393 42 -528
14z m435 -312 c279 -65 517 -285 611 -564 99 -295 30 -615 -185 -852 -106
-118 -277 -216 -442 -254 -80 -18 -114 -21 -222 -17 -242 10 -423 94 -593 276
-80 86 -127 158 -165 250 -50 123 -59 178 -58 337 0 136 3 158 28 235 79 239
229 418 441 523 188 94 375 115 585 66z"/>
<path d="M10709 11565 c-549 -78 -959 -426 -1135 -961 -95 -291 -115 -665 -53
-968 111 -535 440 -920 922 -1081 164 -55 265 -69 482 -69 161 0 201 4 265 21
210 58 334 130 475 273 48 50 89 89 91 88 1 -2 14 -64 28 -138 14 -74 28 -145
31 -157 5 -23 6 -23 215 -23 l210 0 0 800 0 800 -625 0 -625 0 0 -245 0 -245
329 0 328 0 -4 -27 c-29 -190 -91 -331 -186 -426 -73 -73 -173 -129 -284 -158
-113 -30 -336 -31 -446 -1 -292 80 -481 303 -562 667 -22 95 -31 395 -16 508
33 250 115 446 243 582 142 152 318 225 543 225 302 0 517 -147 607 -415 l27
-80 312 -3 311 -2 -7 57 c-16 133 -69 288 -137 405 -165 286 -448 480 -817
559 -126 27 -386 34 -522 14z"/>
<path d="M7627 11503 c-3 -5 -252 -663 -555 -1463 -303 -800 -553 -1463 -557
-1472 -7 -17 13 -18 322 -18 l330 0 115 328 115 327 554 0 553 0 111 -325 110
-325 339 -3 c319 -2 338 -1 333 15 -2 10 -246 664 -542 1453 -295 789 -542
1447 -547 1463 l-10 27 -333 0 c-184 0 -336 -3 -338 -7z m521 -1270 c100 -292
182 -534 182 -537 0 -3 -171 -6 -381 -6 -301 0 -380 3 -377 13 3 6 90 252 193
544 104 293 192 529 195 525 4 -4 88 -246 188 -539z"/>
<path d="M12840 10030 l0 -1480 1125 0 1125 0 0 270 0 270 -797 2 -798 3 0
360 0 360 718 3 717 2 0 255 0 255 -720 0 -720 0 0 315 0 315 785 0 785 0 0
275 0 275 -1110 0 -1110 0 0 -1480z"/>
<path d="M15231 5988 c1 -66 2 -69 10 -33 11 56 11 105 -1 105 -6 0 -10 -30
-9 -72z"/>
</g>
</svg>
