<?xml version="1.0" standalone="no"?>
<!DOCTYPE svg PUBLIC "-//W3C//DTD SVG 20010904//EN"
 "http://www.w3.org/TR/2001/REC-SVG-20010904/DTD/svg10.dtd">
<svg version="1.0" xmlns="http://www.w3.org/2000/svg"
 width="1024.000000pt" height="1024.000000pt" viewBox="0 0 1024.000000 1024.000000"
 preserveAspectRatio="xMidYMid meet">

<g transform="translate(0.000000,1024.000000) scale(0.100000,-0.100000)"
fill="#000000" stroke="none">
<path d="M5000 8140 c-326 -21 -640 -88 -955 -204 -156 -58 -466 -216 -615
-314 -382 -251 -700 -575 -939 -957 -80 -126 -196 -364 -254 -520 -351 -938
-198 -1984 410 -2797 477 -636 1177 -1061 1984 -1203 222 -39 366 -48 637 -42
312 7 491 33 780 113 552 153 1028 435 1428 847 312 320 538 682 679 1090 l35
98 -23 9 c-12 5 -121 39 -242 76 -121 37 -225 69 -231 71 -7 3 -21 -23 -35
-64 -177 -536 -572 -1023 -1077 -1327 -302 -182 -635 -303 -998 -362 -155 -25
-536 -30 -704 -10 -338 41 -591 117 -895 266 -264 129 -480 284 -685 489 -373
375 -614 852 -696 1381 -25 158 -25 508 -1 670 103 680 467 1272 1027 1670
365 259 813 429 1270 481 152 17 460 15 614 -5 497 -64 942 -247 1321 -545 86
-68 165 -141 165 -152 0 -5 -188 -9 -419 -9 -323 0 -421 -3 -428 -12 -6 -8 -7
-113 -4 -268 l6 -255 400 4 c220 2 591 7 825 10 l425 6 -2 580 c-2 319 -6 680
-9 803 l-6 222 -262 -2 -261 -3 3 -292 c1 -161 -1 -293 -4 -293 -3 0 -54 38
-112 84 -601 469 -1393 715 -2152 666z"/>
<path d="M5003 5556 c-125 -31 -259 -126 -337 -239 -139 -202 -124 -514 35
-700 54 -63 151 -131 235 -164 64 -25 80 -27 214 -28 122 0 156 3 215 22 71
22 166 78 218 126 l27 26 -2 198 -3 198 -120 0 -120 0 -3 -153 -3 -153 -46
-21 c-65 -29 -192 -36 -265 -14 -70 20 -156 95 -188 163 -33 70 -45 170 -30
245 24 123 87 205 194 254 51 23 73 27 146 27 96 -1 155 -20 222 -73 20 -17
41 -30 46 -30 11 0 122 161 122 177 0 13 -94 77 -153 103 -111 49 -285 65
-404 36z"/>
<path d="M3767 5523 c-26 -49 -467 -1074 -467 -1084 0 -15 247 -11 257 4 4 6
28 59 53 117 l45 105 240 0 239 0 46 -105 c25 -58 49 -111 53 -117 10 -15 257
-19 257 -4 0 7 -265 626 -423 986 l-53 120 -117 3 -116 3 -14 -28z m202 -473
c34 -79 61 -148 61 -152 0 -4 -61 -8 -135 -8 -76 0 -135 4 -135 9 0 5 25 67
56 138 31 70 60 139 65 152 6 14 13 20 18 15 5 -5 37 -74 70 -154z"/>
<path d="M5840 4990 l0 -560 410 0 410 0 0 110 0 110 -284 0 c-218 0 -285 3
-288 13 -3 6 -4 50 -2 97 2 47 3 93 4 102 0 16 21 18 248 20 l247 3 3 103 3
102 -250 0 c-218 0 -250 2 -255 16 -8 21 -8 153 0 193 l7 31 273 0 274 0 0
110 0 110 -400 0 -400 0 0 -560z"/>
</g>
</svg>
